<svg version="1" xmlns="http://www.w3.org/2000/svg" width="682.667" height="682.667"
     viewBox="0 0 512.000000 512.000000">
    <path d="M139.1 178.4c-5.1 2.8-5 2-5.1 63.4 0 56.5 0 57.4-2 57.9-1.8.5-2 1.4-2 7.4 0 6.1.2 6.9 1.9 6.9 1 0 2.1.7 2.5 1.5.4 1.2 2.9 1.5 13.9 1.5 14.5 0 15.7-.4 15.7-5.5 0-4.6 4.4-12.9 8.4-16 10-7.6 22.3-7.1 30.9 1.3 4.9 4.7 6.5 7.8 7.5 14.4l.7 5.3 38.4.3c41.6.2 40 .5 40.1-5.3.1-11.4 13.7-22.6 25.6-21.2 10.1 1.1 19.5 9.4 20.9 18.5 1.5 9.1-.9 8.2 21.1 8.2 16.4 0 19.6-.2 20-1.5.4-.8 1.5-1.5 2.5-1.5 1.7 0 1.9-.8 1.9-6.9 0-6-.2-6.9-2-7.4-1.9-.5-2-1.4-2-18.4 0-23.5-.6-24.6-15.4-28.4-4.2-1.1-7.9-2.7-9.4-4.2-1.8-1.8-4.8-10.1-11.9-33.3-5.2-16.9-10.2-31.8-11-33-3.6-5.6-.3-5.4-98.5-5.4-73 .1-90.8.3-92.7 1.4zm184.8 7.1c1.2 1.2 5.4 13.3 11.1 32 5.1 16.5 10.1 31.4 11.1 33.2 2.5 4.1 7 6.7 13.9 8.3 7.6 1.7 10.9 3.6 11 6.2 0 .5-2.5.8-5.5.8H360v19h12v12h-32.6l-4.3-4.4c-12-12.3-31.2-12.3-43.2 0l-4.3 4.4h-73.9l-4.9-4.6c-6.8-6.3-12.6-8.8-21.3-8.8-8.6-.1-16.3 3.1-22.3 9.3l-4 4.1H140v-14h8v-14.9l-3.7-.3-3.8-.3-.3-40.5c-.2-40.4-.2-40.5 1.9-42.3 2-1.6 7.3-1.7 91-1.5 87.3.3 88.9.3 90.8 2.3zm48.1 90.1v6.5l-4.2-.3-4.3-.3-.3-4.9c-.4-6.8.1-7.6 4.8-7.6h4v6.6zm-227.2-.4c-.2 3.5-.7 4.3-2.3 4.3-1.6 0-2.1-.8-2.3-4.3-.3-3.9-.2-4.2 2.3-4.2s2.6.3 2.3 4.2zM160 300c-1 1.8-2.1 2-10.5 2-8.8 0-9.5-.1-9.5-2s.7-2 10.5-2c10.3 0 10.5.1 9.5 2zm127-1.2c0 2.9-2.9 3.2-37.2 3.2-19.1 0-34.8-.2-34.8-.4s-.3-1.1-.6-2c-.6-1.4 3-1.6 36-1.6 20.1 0 36.6.4 36.6.8zm85 1.2c0 1.9-.7 2-14.8 2-14.2 0-17.2-.6-17.2-3.2 0-.4 7.2-.8 16-.8 15.3 0 16 .1 16 2zm-214.4 6.6c-.3.9-.6 2-.6 2.5s-3.8.9-8.5.9c-8.4 0-8.5 0-8.5-2.5s.1-2.5 9.1-2.5c7.9 0 9 .2 8.5 1.6zm126.4-.4c-.1 3.8-.8 3.8-34.1 3.6l-32.4-.3-.3-2.3-.3-2.2h33.5c26.2 0 33.6.3 33.6 1.2zm88 1.3v2.5h-13.9c-14.2 0-15.1-.2-15.1-4.1 0-.5 6.4-.9 14.5-.9H372v2.5z"/>
    <path d="M293 221.5V254h23c17.8 0 23-.3 23-1.3 0-.6-4.2-15.2-9.3-32.2l-9.4-31-13.6-.3-13.7-.3v32.6zm33.2-.5c4.7 15.7 8.7 28.8 8.7 29.3.1.4-8.6.6-19.1.5l-19.3-.3-.3-28c-.1-15.4 0-28.6.3-29.3.3-.9 3-1.2 10.7-1l10.3.3 8.7 28.5z"/>
    <path d="M310.1 218.1c-1.7 2.3-3.1 4.7-3.1 5.3 0 1.2.4.7 4.4-4.7 1.5-2.1 2.6-4.1 2.3-4.4-.3-.2-1.9 1.4-3.6 3.8zM310.1 226.6c-2.8 3.7-5.1 7.2-5.1 7.7 0 1.3.4.9 6.4-7.1 2.7-3.5 4.6-6.6 4.3-6.8-.3-.3-2.8 2.5-5.6 6.2zM313.1 231.5c-1.8 2.5-2.8 4.5-2.3 4.5 1.1 0 6.7-7.8 6-8.5-.2-.3-1.9 1.5-3.7 4zM156.7 199.7c-1.3 2.2-4.7 15.5-4.7 18.4 0 1.9.9 4.7 2 6.4 1.7 2.6 2 4.7 2 15.7V253h112v-12c0-11.2.2-12.3 2.8-16.9l2.7-5-2.2-8.7c-1.3-4.8-2.8-9.3-3.4-10-.9-1.2-10.9-1.4-56-1.4-30.1 0-55 .3-55.2.7zM175 211c0 9.1-1.2 12.6-5.1 14.6-4.2 2.1-7.5 1.7-11.1-1.5-3.8-3.3-4-6.5-1.4-15.4l1.7-5.7H175v8zm23.8.9c-.3 7.8-.6 9.3-2.7 11.5-4.4 4.7-11.2 4.4-15.3-.8-1.4-1.6-1.8-4.1-1.8-10.9V203h20.2l-.4 8.9zm23.2-.3c0 9.6-.8 11.7-5.2 14-3.9 2-8.7 1.2-11.8-2.1-2.1-2.2-2.4-3.8-2.8-11.5l-.4-9H222v8.6zm24 0c0 8.4-.1 8.7-3.4 12-2.4 2.4-4.3 3.4-6.6 3.4s-4.1-1-6.6-3.4c-3.3-3.3-3.4-3.6-3.4-12V203h20v8.6zm21.7-1.1c1.9 7.1 1.9 7.8.4 10.8-3.1 6.3-11.9 7.4-16.1 2-1.7-2.1-2-4-2-11.4V203h15.7l2 7.5zM294.5 262c-1.3 2.1.8 3 7.1 3 5.7 0 6.4-.2 6.4-2s-.7-2-6.4-2c-3.6 0-6.8.4-7.1 1zM182.3 293c-15.5 3.7-21.5 22.7-11 34.6 8.7 10 24.2 9.9 32.4-.1 10.2-12.3 4-31-11.4-34.6-4.4-1-5.6-1-10 .1zm11.8 10.3c9.9 6.6 7 20.5-4.7 23.1-8.5 1.9-16.8-7.1-14.3-15.6 2.4-8.6 11.8-12.4 19-7.5zM308.2 292.9c-8.5 2.2-16.2 11.7-16.2 20 0 19.9 23.6 29.7 37.2 15.4 6.3-6.6 7.5-15.7 3.1-24.4-4.4-8.6-14.7-13.3-24.1-11zm14.5 12.5c2.7 2.9 3.3 4.4 3.3 7.8 0 4.9-2.7 10-6.2 11.9-3.3 1.8-9.9 1.5-13.1-.6-6.2-4-7.6-13-3-18.5 3.4-4.1 5.8-5.1 11.3-4.6 3.5.3 5.1 1.1 7.7 4z"/>
</svg>